<svg viewBox="0 0 438 438" width="22" height="22">
  <path d="M432.823 121.05c-3.806-9.132-8.377-16.367-13.71-21.695l-79.94-79.942c-5.325-5.325-12.56-9.895-21.696-13.704C308.346 1.903 299.97 0 292.357 0H27.41c-7.61 0-14.084 2.663-19.414 7.993S.003 19.792.003 27.407v383.72c0 7.617 2.662 14.09 7.992 19.417s11.803 7.99 19.414 7.99h383.718c7.618 0 14.09-2.666 19.417-7.99s7.987-11.8 7.987-19.417V146.178c0-7.616-1.902-16-5.708-25.13zM182.725 45.677c0-2.474.905-4.61 2.714-6.423 1.807-1.804 3.95-2.708 6.423-2.708h54.82c2.468 0 4.61.902 6.417 2.708 1.813 1.812 2.717 3.95 2.717 6.423v91.362c0 2.478-.9 4.618-2.717 6.427-1.808 1.803-3.95 2.708-6.417 2.708h-54.82c-2.474 0-4.617-.902-6.423-2.708-1.81-1.812-2.714-3.95-2.714-6.427V45.677zm146.18 356.314H109.633V292.355h219.273V401.99zm73.094 0h-36.56V283.218c0-7.617-2.663-14.085-7.99-19.417s-11.8-7.994-19.4-7.994H100.498c-7.614 0-14.087 2.666-19.417 7.994s-7.992 11.8-7.992 19.417V401.99H36.544V36.542h36.544v118.77c0 7.615 2.662 14.084 7.992 19.414s11.803 7.993 19.417 7.993h164.456c7.6 0 14.09-2.666 19.4-7.993s7.994-11.8 7.994-19.414V36.542c2.854 0 6.563.95 11.136 2.853s7.806 3.805 9.71 5.708l80.232 80.23c1.902 1.903 3.806 5.2 5.708 9.85 1.91 4.665 2.857 8.33 2.857 10.994V401.99z"/>
</svg>
